<svg xmlns="http://www.w3.org/2000/svg" data-name="Layer 1" viewBox="0 0 100 125" x="0px" y="0px"><path d="M45.88,52.14,45,39.2l-.86,12.94A3.06,3.06,0,0,1,41.31,55l-12.93.86,12.93.86a3.06,3.06,0,0,1,2.85,2.85L45,72.5l.86-12.94a3.07,3.07,0,0,1,2.86-2.85l12.93-.86L48.74,55A3.07,3.07,0,0,1,45.88,52.14Z" fill="#ffffff"/><path d="M65.49,43.62a1.45,1.45,0,0,1-1.35-1.36l-.41-6.13-.41,6.13A1.45,1.45,0,0,1,62,43.62l-6.13.4,6.13.41a1.45,1.45,0,0,1,1.35,1.35l.41,6.14.41-6.14a1.45,1.45,0,0,1,1.35-1.35L71.62,44Z" fill="#ffffff"/><path d="M34.29,33.31,34.54,37l.25-3.69a.85.85,0,0,1,.81-.81l3.69-.25L35.6,32a.85.85,0,0,1-.81-.81l-.25-3.69-.25,3.69a.85.85,0,0,1-.81.81l-3.69.25,3.69.25A.85.85,0,0,1,34.29,33.31Z" fill="#ffffff"/><text x="0" y="115" fill="#ffffff" font-size="5px" font-weight="bold" font-family="'Helvetica Neue', Helvetica, Arial-Unicode, Arial, Sans-serif">Created by Oh Rian</text><text x="0" y="120" fill="#ffffff" font-size="5px" font-weight="bold" font-family="'Helvetica Neue', Helvetica, Arial-Unicode, Arial, Sans-serif">from the Noun Project</text></svg>